PathFileType	4	(X/Y/Z)	s06c0402.trc
DataRate	CameraRate	NumFrames	NumMarkers	Units	OrigDataRate	OrigDataStartFrame	OrigNumFrames
200	200	4	48	mm	200	500	2000
Frame#	Time	racr			lacr			c7			jug			rlel			rdr			llel			ldr			s2			lic			ric			lasi			rasi			rpsi			lpsi			rgt			lgt			rth1			rth2			rth3			rth4			rlfc			rmfc			rsh1			rsh2			rsh3			rsh4			rlmal			rcal			rtoe			rmt5			lth1			lth2			lth4			lth3			llfc			lmfc			llmal			lcal			lmt5			lsh1			lsh2			lsh3			lsh4			ltoe			SBIKE			LBIKE			RBIKE			
		X1	Y1	Z1	X2	Y2	Z2	X3	Y3	Z3	X4	Y4	Z4	X5	Y5	Z5	X6	Y6	Z6	X7	Y7	Z7	X8	Y8	Z8	X9	Y9	Z9	X10	Y10	Z10	X11	Y11	Z11	X12	Y12	Z12	X13	Y13	Z13	X14	Y14	Z14	X15	Y15	Z15	X16	Y16	Z16	X17	Y17	Z17	X18	Y18	Z18	X19	Y19	Z19	X20	Y20	Z20	X21	Y21	Z21	X22	Y22	Z22	X23	Y23	Z23	X24	Y24	Z24	X25	Y25	Z25	X26	Y26	Z26	X27	Y27	Z27	X28	Y28	Z28	X29	Y29	Z29	X30	Y30	Z30	X31	Y31	Z31	X32	Y32	Z32	X33	Y33	Z33	X34	Y34	Z34	X35	Y35	Z35	X36	Y36	Z36	X37	Y37	Z37	X38	Y38	Z38	X39	Y39	Z39	X40	Y40	Z40	X41	Y41	Z41	X42	Y42	Z42	X43	Y43	Z43	X44	Y44	Z44	X45	Y45	Z45	X46	Y46	Z46	X47	Y47	Z47	X48	Y48	Z48	
500	2.5000	710.801043	1336.465318	-67.700812	695.396054	1276.690888	-404.014202	692.565120	1422.989597	-247.289795	711.676106	1258.830265	-225.381394	578.774567	1105.611689	60.545646	684.428855	934.347181	-55.369150	517.709644	1070.031533	-499.648236	662.815718	931.475576	-408.150347	173.048477	1174.380222	-195.032092	329.123595	1122.733404	-363.190831	325.852837	1149.121084	-34.534209	352.370428	1070.082028	-326.595526	350.369824	1103.995065	-78.336756	207.838017	1212.273022	-167.532186	209.818538	1207.687835	-226.538441	299.054996	1077.483725	4.512614	277.497493	1040.208942	-384.630978	402.643894	998.987262	2.192992	482.355213	957.702708	-10.179499	528.365994	884.130569	-15.995686	500.079734	983.321352	-31.682735	561.108836	790.298961	-45.207113	538.462014	776.165091	-156.316175	460.100056	719.409233	-20.520561	391.608354	668.653356	-42.812122	307.186522	649.184104	-38.632586	402.392859	653.952861	-78.272560	225.632887	623.669373	-39.763911	160.823831	655.461953	-87.104399	308.006004	423.651046	-107.736476	239.157800	486.565770	-30.266483	261.234726	914.008514	-407.896085	288.357802	831.284408	-410.030842	325.422335	832.960938	-406.538024	270.955455	743.761084	-401.450181	265.280606	625.666698	-385.931713	278.336289	603.710657	-272.644392	164.427139	266.087590	-369.614864	98.955246	267.418593	-319.251342	251.438228	148.346396	-404.216635	231.647122	520.140893	-405.699505	232.927420	434.366210	-390.763821	189.771882	356.917116	-381.416113	263.527125	430.657634	-366.007065	334.719266	114.712448	-350.470322	-156.295728	855.295782	-222.085335	-49.124842	79.636655	-414.700890	-48.983225	79.868069	-17.244083	
501	2.5050	712.752690	1334.920641	-65.271492	695.831340	1277.274240	-401.819149	694.304697	1422.610873	-244.183155	711.922401	1257.960275	-223.598655	578.525291	1105.444184	61.678396	684.225549	934.522079	-55.439176	518.361833	1070.942390	-498.552843	663.298311	931.429171	-408.323102	172.342517	1178.200764	-195.265484	329.095490	1125.191622	-362.229853	325.101297	1153.326308	-32.932726	351.048861	1071.845473	-325.775917	350.107748	1108.054052	-76.283339	207.300849	1216.127820	-167.855608	209.566926	1211.226518	-226.820575	297.425488	1082.294923	5.188057	275.899747	1042.555524	-383.883825	401.082571	1003.581543	2.423102	481.100844	962.980171	-9.947868	527.278041	889.550284	-15.820990	498.598979	988.300782	-31.347222	560.772788	795.325139	-45.171104	538.218529	781.379532	-156.490682	460.559216	723.238877	-20.460214	392.930809	671.476589	-43.209691	308.790839	650.818085	-38.723263	403.616524	657.157314	-79.055270	227.602141	624.594610	-39.861061	161.492953	654.574835	-86.991778	315.574409	427.308475	-107.923788	244.952717	488.075014	-30.233250	258.377349	916.666652	-407.048128	284.501814	833.567231	-409.055692	321.589762	834.799107	-405.295548	265.964338	746.310079	-400.566864	258.857412	628.125941	-384.666874	272.605801	606.135300	-271.171354	161.863440	268.164978	-369.340674	97.126789	270.879887	-318.947178	246.014497	147.251262	-404.179485	225.479286	522.761598	-404.712952	227.919432	436.960243	-390.457809	185.766934	358.914845	-381.035884	258.658909	433.416260	-365.892176	328.414148	111.377759	-350.501121	-156.364709	855.318111	-222.007041	-49.130465	79.653000	-414.676245	-48.983312	79.848871	-17.244332	
502	2.5100	714.855148	1332.831878	-63.625445	696.266765	1277.772356	-399.566204	696.114770	1422.200729	-241.081457	712.203266	1257.133249	-221.377042	578.359951	1104.978084	62.712407	684.058731	934.752322	-55.577654	519.178009	1072.081104	-497.767386	663.709711	931.465299	-408.537145	171.874678	1182.401075	-195.705549	329.137606	1127.939378	-361.355675	323.118149	1157.126673	-32.339595	349.712011	1073.878632	-324.925813	348.256860	1111.574535	-75.297011	207.005077	1220.018710	-167.841372	209.464343	1215.002410	-227.051131	295.925755	1087.422828	5.637267	274.265303	1045.108206	-382.998037	399.464363	1008.244471	2.773520	479.777119	968.140353	-9.566844	526.029989	894.478328	-15.625222	497.034635	993.331592	-31.043295	560.057950	800.541598	-44.948568	537.736457	786.428026	-156.646226	461.175474	726.600373	-21.224655	394.052069	674.161288	-43.563028	310.157601	652.231890	-39.023655	404.807424	659.847741	-79.806260	229.421129	625.123414	-40.123983	162.132679	653.162058	-86.960840	323.069167	430.621078	-107.934879	250.677023	489.377535	-30.202713	255.614464	919.514954	-406.220587	280.806279	836.111313	-408.163113	318.005735	836.910484	-403.966252	261.127560	749.078830	-399.711048	252.441280	631.075414	-383.365854	267.002379	608.850852	-269.934751	159.600699	270.493403	-369.219099	95.764668	274.736377	-318.750431	240.700267	146.345264	-404.097905	219.416530	525.764454	-403.786509	223.166726	439.811667	-390.233585	182.096723	361.146060	-380.784323	254.158313	436.559043	-365.889980	321.979370	107.993805	-350.494721	-156.370173	855.337394	-221.946367	-49.127661	79.723394	-414.657384	-48.986951	79.870342	-17.230465	
503	2.5150	716.810391	1331.183174	-61.344912	696.802745	1278.342106	-397.437407	697.943411	1421.804258	-238.077207	712.509050	1256.366419	-219.178215	578.190718	1104.389040	63.573672	683.933530	934.928834	-55.626687	519.723297	1073.181209	-496.472694	664.104965	931.624832	-408.788661	171.395897	1186.794511	-195.888309	329.162210	1130.725405	-360.487356	321.220070	1161.072301	-31.734361	348.392900	1076.215114	-324.090143	346.539987	1115.308498	-74.337327	206.638913	1224.258316	-168.038407	209.340853	1218.980249	-227.240858	294.564563	1092.637481	6.008743	272.673391	1047.876485	-382.183255	397.792912	1012.880596	3.074203	477.633561	972.451300	-9.429183	524.627816	899.536052	-15.413212	495.471065	998.047957	-30.909500	559.341461	805.403867	-45.269527	537.009335	791.287892	-156.871718	460.929598	730.024874	-22.115618	395.013229	676.595025	-43.976010	311.486404	653.469113	-39.288224	405.772813	662.436323	-80.164319	231.159654	625.189271	-40.551189	163.006989	651.322410	-86.935180	330.608949	433.917572	-108.079745	256.426806	490.487919	-30.223840	252.915713	922.579455	-405.538323	277.190783	838.843320	-407.343980	314.373292	839.261533	-402.735831	256.523751	752.046581	-398.907673	246.247604	633.994608	-382.095854	261.620118	611.681054	-268.793184	157.822016	272.953131	-369.233235	94.840874	278.963902	-318.620627	235.266491	145.509618	-404.056521	213.545635	528.870283	-402.908191	218.590122	442.876446	-390.081979	178.724921	363.645760	-380.643407	249.807953	439.919689	-366.074122	315.350545	104.679103	-350.575321	-156.567731	855.397681	-222.009046	-49.113440	79.842995	-414.670106	-48.994639	79.895042	-17.218649	
